<svg id="Lag_1" data-name="Lag 1" xmlns="http://www.w3.org/2000/svg" viewBox="0 0 903.63 747"><defs><style>.cls-1{fill:#fff;}</style></defs><title>animation-shape</title><path d="M183.36,834.5V88.5H1086v746ZM756.08,176.88c-29.63,0-50.5,5.19-50.7,5.24a1315.37,1315.37,0,0,0-177.46,33.63C473.48,230.21,426.74,247.17,389,266.15c-47.22,23.75-80.41,50.77-98.65,80.3-19.39,31.39-22.14,66.1-8.18,103.16.17.75,19.21,81.79,66.85,161.79,44,73.88,122.08,162,244.17,162,1.77,0,3.59,0,5.38-.06q17-.35,33.41-.62c126.79-2.19,226.94-3.92,285.88-66.2,45.34-47.91,64.19-129.6,59.34-257.06C968.2,212.29,834.8,176.88,756.08,176.88Z" transform="translate(-182.86 -88)"/><path class="cls-1" d="M1085.49,89V834H183.86V89h901.63M705.33,181.62a1318.26,1318.26,0,0,0-177.53,33.65c-54.48,14.47-101.25,31.43-139,50.43-47.3,23.79-80.56,50.87-98.85,80.49-19.46,31.51-22.24,66.34-8.25,103.53.65,2.75,19.83,82.86,66.92,161.93,44.07,74,122.27,162.2,244.6,162.2,1.78,0,3.6,0,5.39-.06,11.34-.23,22.56-.43,33.41-.61,126.91-2.19,227.15-3.92,286.23-66.36,45.43-48,64.33-129.82,59.48-257.42-9-237.54-142.72-273-221.63-273-28.82,0-49.37,4.9-50.75,5.24M1086.49,88H182.86V835h903.63V88ZM593.2,772.85c-235.9,0-310.56-323.42-310.56-323.42C202,235.18,705.5,182.61,705.5,182.61s20.67-5.23,50.58-5.23c75.94,0,211.57,33.67,220.63,272,12.64,332.28-138,318.4-378.14,323.36-1.79,0-3.6.06-5.37.06Z" transform="translate(-182.86 -88)"/></svg>