<svg id="Lag_1" data-name="Lag 1" xmlns="http://www.w3.org/2000/svg" viewBox="0 0 400 452"><defs>
          <linearGradient id="myGradient">
            <stop offset="0%" stop-color="#0700dd" />
            <stop offset="89%" stop-color="#00f2ff" />
          </linearGradient>
        </defs><path fill="url(#myGradient)" d="M99.5,608.5v-451h399V321c-.12,74.79-28.29,145.61-79.31,199.43S300.05,605.3,227,608.26c-3.79.16-7.66.24-11.48.24Z" transform="translate(-99 -157)"/><path d="M498,158V321c-.13,74.66-28.24,145.37-79.17,199.09S299.9,604.8,227,607.76c-3.79.16-7.64.24-11.46.24H100V158H498m1-1H99V609H215.5q5.78,0,11.5-.24C378.08,602.63,498.74,476.18,499,321V157Z" transform="translate(-99 -157)"/><path d="M99.5,608.5v-451h399V321c-.12,74.79-28.29,145.61-79.31,199.43S300.05,605.3,227,608.26c-3.79.16-7.66.24-11.48.24Z" transform="translate(-99 -157)"/><path d="M498,158V321c-.13,74.66-28.24,145.37-79.17,199.09S299.9,604.8,227,607.76c-3.79.16-7.64.24-11.46.24H100V158H498m1-1H99V609H215.5q5.78,0,11.5-.24C378.08,602.63,498.74,476.18,499,321V157Z" transform="translate(-99 -157)"/><path class="cls-1" d="M227,608.76V609H215.5Q221.27,609,227,608.76Z" transform="translate(-99 -157)"/><path d="M227,608.76q-5.73.24-11.5.24H227v-.24Z" transform="translate(-99 -157)"/></svg>