<?xml version="1.0" encoding="UTF-8" standalone="no"?>
<svg xmlns:dc="http://purl.org/dc/elements/1.1/" xmlns:cc="http://creativecommons.org/ns#" xmlns:rdf="http://www.w3.org/1999/02/22-rdf-syntax-ns#" xmlns:svg="http://www.w3.org/2000/svg" xmlns="http://www.w3.org/2000/svg" version="1.1" id="svg2" viewBox="0 0 377.55135 103.31492" height="29.157766mm" width="106.55338mm">
  <defs id="defs4"/>
  <metadata id="metadata7">
    <rdf:RDF>
      <cc:Work rdf:about="">
        <dc:format>image/svg+xml</dc:format>
        <dc:type rdf:resource="http://purl.org/dc/dcmitype/StillImage"/>
        <dc:title/>
      </cc:Work>
    </rdf:RDF>
  </metadata>
  <g transform="translate(-726.06805,-582.20517)" id="layer1">
    <path id="path4289" d="m 880.89199,685.36145 c -4.99964,-0.48491 -8.46143,-2.95783 -9.44916,-6.74997 -0.37935,-1.45643 -0.34991,-4.00048 0.0617,-5.32262 1.15965,-3.726 4.22214,-5.7007 10.37081,-6.68709 7.04856,-1.13072 8.02495,-1.40383 8.72149,-2.43936 0.87292,-1.29775 0.26499,-3.27281 -1.24319,-4.03896 -1.13492,-0.57652 -3.45461,-0.71481 -4.90715,-0.29255 -1.61461,0.4694 -2.90721,1.93327 -2.91817,3.30487 l -0.004,0.48244 -4.47352,0 -4.47351,0 0.002,-0.65787 c 0.005,-1.7316 1.11801,-4.26497 2.55418,-5.81621 2.56241,-2.7677 6.25453,-4.05328 11.63281,-4.0505 4.56433,0.002 7.11889,0.69819 9.41641,2.56489 l 0.71167,0.57822 0.86722,-0.62774 c 4.24487,-3.07262 11.04489,-3.5297 15.95435,-1.07243 4.69573,2.3503 7.45325,6.61833 8.41781,13.02884 0.1452,0.96488 0.26446,2.2872 0.26502,2.93849 l 0.002,1.18416 -11.0522,0 c -12.55565,0 -11.29431,-0.18628 -10.7723,1.59089 0.97871,3.33211 3.04478,5.06297 6.22833,5.2179 1.97593,0.0961 3.15284,-0.23872 4.25815,-1.21167 0.45313,-0.39886 0.94167,-0.95301 1.08565,-1.23143 l 0.26178,-0.5062 4.71573,0 4.71572,0 -0.0914,0.39473 c -0.28432,1.22942 -1.51293,3.31609 -2.70245,4.58982 -2.18993,2.34496 -4.58856,3.76406 -7.64645,4.52385 -2.17193,0.53966 -6.51378,0.5378 -8.51607,-0.004 -2.85472,-0.77193 -4.71569,-1.74538 -6.56594,-3.43452 l -1.13342,-1.03476 -0.82186,0.78567 c -2.67892,2.56091 -5.33593,3.6701 -9.59346,4.00493 -1.15785,0.0912 -2.18413,0.15659 -2.28062,0.14562 -0.0964,-0.0111 -0.81525,-0.082 -1.59725,-0.15782 z m 6.85476,-6.66235 c 0.71369,-0.27166 1.33235,-0.68379 1.94269,-1.29412 1.2615,-1.2615 1.48368,-2.01603 1.48368,-5.03859 l 0,-2.41693 -1.15789,0.43584 c -0.63685,0.23969 -2.39334,0.74203 -3.90336,1.1163 -3.22647,0.79972 -3.83981,1.03995 -4.74653,1.85911 -1.46197,1.32083 -1.30672,4.04745 0.29002,5.09367 1.34758,0.88299 4.12182,0.99443 6.09139,0.24472 z m 24.82693,-13.01958 c -0.004,-0.47641 -0.50632,-2.0748 -0.89689,-2.85682 -0.54591,-1.0931 -1.87301,-2.26421 -2.98389,-2.63319 -1.34953,-0.44824 -3.80814,-0.29401 -4.98756,0.31287 -1.47616,0.75957 -2.70568,2.43206 -3.12889,4.25612 -0.0671,0.28947 -0.16317,0.66445 -0.21334,0.83332 -0.0857,0.28826 0.28396,0.30699 6.06073,0.30699 4.8057,0 6.15147,-0.048 6.14984,-0.21929 z m -59.82009,1.97361 0,-17.01687 -6.31554,0 -6.31554,0 0,-4.47351 0,-4.47351 17.89403,0 17.89403,0 0,4.47351 0,4.47351 -6.31555,0 -6.31554,0 0,17.01687 0,17.01687 -5.26294,0 -5.26295,0 0,-17.01687 z m 72.1024,1.57889 0,-15.438 4.64894,0 4.64893,0 0,2.10519 c 0,1.15785 0.0672,2.10518 0.14956,2.10518 0.0823,0 0.51058,-0.45955 0.95187,-1.02122 2.63977,-3.36 7.24539,-4.77903 11.74515,-3.61873 1.65854,0.42766 3.0784,1.25411 4.34573,2.52948 1.23612,1.24396 2.01464,2.55667 2.65622,4.47879 l 0.4099,1.22803 0.0529,11.53464 0.053,11.53462 -4.82465,0 -4.82465,0 -0.0507,-9.95573 -0.0506,-9.95577 -0.45638,-0.96486 c -0.88225,-1.86535 -2.19559,-2.68971 -4.28028,-2.6867 -2.29243,0.003 -4.13038,1.29151 -5.03422,3.52849 -0.40223,0.99546 -0.4044,1.04576 -0.45512,10.51739 l -0.0509,9.51718 -4.81727,0 -4.81726,0 0,-15.43798 z m 33.332,-6.05241 0,-21.49037 4.8231,0 4.82306,0 0.0452,11.26247 0.0451,11.26246 4.56122,-5.20371 4.56122,-5.20371 5.60555,-0.006 5.60556,-0.006 -0.62916,0.65786 c -2.84043,2.97001 -10.02038,10.69683 -10.08264,10.85061 -0.043,0.10622 2.60983,4.47224 5.8952,9.70227 3.28539,5.23004 5.97341,9.54427 5.97341,9.58719 0,0.0429 -2.51027,0.078 -5.57835,0.078 l -5.57837,0 -3.66822,-6.23996 c -2.01753,-3.43201 -3.72261,-6.27361 -3.78907,-6.31465 -0.0665,-0.0411 -0.76055,0.62605 -1.54245,1.48252 l -1.42163,1.55721 0,4.75744 0,4.75744 -4.82436,0 -4.82437,0 0,-21.49036 z M 903.5999,639.50045 c -5.38431,-0.88023 -8.58921,-3.44046 -8.58921,-6.86146 0,-1.51432 0.57491,-2.72304 1.84904,-3.88753 0.9908,-0.90554 2.85641,-1.96986 4.09369,-2.33544 0.41007,-0.12116 0.7453,-0.30649 0.74495,-0.41182 0,-0.10533 -0.37536,-0.34513 -0.83331,-0.53289 -1.0979,-0.45013 -2.53552,-1.9003 -2.8122,-2.83675 -0.7235,-2.44874 0.35631,-4.90082 3.16371,-7.18428 0.55481,-0.45126 1.00873,-0.88153 1.00873,-0.95612 0,-0.0746 -0.39375,-0.38835 -0.87501,-0.69716 -2.49926,-1.60378 -4.04078,-4.45039 -4.03448,-7.45023 0.0105,-4.97913 3.43181,-8.88389 8.76752,-10.00629 2.60879,-0.54877 6.14825,-0.2243 8.48407,0.77776 l 0.85133,0.36522 1.22296,-0.81302 c 1.73165,-1.15121 3.3927,-1.70721 5.14425,-1.72193 1.61166,-0.0136 2.35909,0.3065 3.02559,1.29552 0.75536,1.12088 0.38191,3.02298 -0.73096,3.72288 -0.41491,0.26095 -0.77387,0.32484 -1.54665,0.27527 -1.13384,-0.0727 -1.68418,-0.45508 -2.25387,-1.56595 -0.61292,-1.19511 -1.54354,-1.48195 -2.96408,-0.91356 -0.6217,0.24876 -0.98723,0.77041 -0.53984,0.77041 0.0911,0 0.63084,0.43086 1.19966,0.9575 1.7521,1.62213 2.66984,3.83543 2.66984,6.43884 0,2.72916 -0.79012,4.79786 -2.52248,6.60438 -1.3239,1.38057 -2.55695,2.13706 -4.67973,2.87106 -1.58085,0.54661 -1.77816,0.57318 -4.28857,0.57751 -2.25163,0.004 -2.84216,-0.0556 -4.09104,-0.41191 l -1.45957,-0.41644 -0.61712,0.59267 c -1.28232,1.23153 -1.67847,2.94373 -0.90779,3.92349 0.80196,1.01954 0.97337,1.04156 8.91756,1.1462 7.00835,0.0924 7.32248,0.11086 8.40617,0.49652 3.00523,1.06947 4.39495,3.16268 4.4434,6.69267 0.0251,1.8266 -0.24383,3.03662 -1.03954,4.67783 -1.5456,3.18784 -4.91211,5.51324 -9.51822,6.57472 -2.01983,0.46546 -7.48743,0.60222 -9.6888,0.24233 z m 10.02561,-2.01149 c 4.03702,-1.1835 6.18175,-3.42372 6.21592,-6.49268 0.0191,-1.71035 -0.37996,-2.77566 -1.35098,-3.6068 -1.25399,-1.07338 -1.74233,-1.13841 -8.53414,-1.13657 l -6.0644,10e-4 -0.90999,0.52188 c -1.0191,0.58448 -1.61161,1.27487 -2.1924,2.55453 -0.50755,1.11829 -0.54769,3.4008 -0.0837,4.75692 0.60887,1.7794 2.32059,3.1579 4.54587,3.66091 1.73348,0.39184 6.67373,0.23854 8.37379,-0.25985 z m -1.78644,-23.60192 c 1.91417,-1.04512 2.66236,-2.83073 2.79487,-6.67011 0.16922,-4.9037 -0.87684,-7.87305 -3.19848,-9.07916 -0.95998,-0.49874 -3.04064,-0.6173 -4.31769,-0.24605 -2.40396,0.69884 -3.55861,2.82444 -3.77911,6.95688 -0.22905,4.29239 0.69872,7.52434 2.5177,8.77072 1.02575,0.70285 1.79359,0.88611 3.47393,0.82905 1.35108,-0.0459 1.71305,-0.12686 2.50878,-0.56133 z m -143.95108,14.2852 c -5.47469,-0.67699 -9.74069,-3.88795 -11.59346,-8.72622 -0.94955,-2.47965 -1.16909,-3.84286 -1.16425,-7.22929 0.005,-3.32498 0.2798,-4.95025 1.21283,-7.16701 1.45884,-3.46605 4.28014,-6.39182 7.56407,-7.84413 2.90805,-1.28608 6.99851,-1.57497 10.2642,-0.72492 2.98928,0.77809 5.64299,2.40703 7.27567,4.46602 4.45505,5.61831 4.46773,15.81658 0.0269,21.57504 -1.549,2.00857 -3.486,3.55342 -5.67483,4.52592 -2.18332,0.97005 -5.42935,1.43148 -7.91108,1.12459 z m 5.10175,-2.10019 c 1.44412,-0.54031 2.89007,-1.93362 3.68189,-3.54787 1.1812,-2.40802 1.69764,-5.44672 1.69846,-9.99357 10e-4,-7.96039 -1.63761,-12.56878 -5.02118,-14.11784 -2.05565,-0.9411 -5.12211,-0.95986 -7.02406,-0.0429 -1.28009,0.61711 -2.61301,2.04912 -3.29528,3.54027 -1.1514,2.51647 -1.53382,4.93564 -1.53214,9.69265 0.003,9.15983 2.06305,13.70224 6.69811,14.77083 1.32358,0.30514 3.54643,0.16534 4.7942,-0.30151 z m 232.56486,2.11743 c -4.8391,-0.68847 -7.4215,-3.67714 -7.15503,-8.28046 0.15368,-2.65441 1.70173,-4.70798 4.61113,-6.11696 1.6751,-0.81119 3.0663,-1.21645 8.4777,-2.46971 l 4.0917,-0.94765 -0.059,-4.64893 c -0.056,-4.40929 -0.079,-4.69405 -0.4602,-5.52392 -0.2212,-0.48123 -0.5638,-1.0472 -0.7616,-1.2577 -0.6259,-0.66621 -1.9936,-1.13004 -3.6483,-1.23724 -2.8458,-0.18437 -4.0742,0.43844 -4.3126,2.18659 -0.3655,2.68003 -1.0795,3.76735 -2.6262,3.99929 -2.6799,0.40189 -4.528,-2.08753 -3.2804,-4.41877 0.1079,-0.2016 0.4915,-0.62583 0.8525,-0.94275 3.2373,-2.84248 12.806,-3.46916 16.8538,-1.10385 1.0521,0.61481 2.2393,2.00478 2.7125,3.17545 0.4034,0.99856 0.4042,1.01902 0.4918,12.05245 0.081,10.04471 0.1153,11.10275 0.3912,11.60684 0.5727,1.04654 1.4283,1.48921 3.3472,1.7317 0.7349,0.0929 0.8369,0.15492 0.7895,0.48015 -0.075,0.51466 -0.8865,0.94425 -2.6048,1.37873 -1.865,0.47163 -4.0997,0.4058 -5.1779,-0.15253 -0.9505,-0.49221 -1.7801,-1.36719 -2.0255,-2.13608 -0.1103,-0.34573 -0.2642,-0.69785 -0.3419,-0.78247 -0.078,-0.0847 -0.5443,0.24262 -1.0366,0.72723 -2.011,1.97948 -5.9432,3.134 -9.13,2.68059 z m 7.2588,-3.33425 c 0.6358,-0.24674 1.3589,-0.71616 1.8859,-1.22415 l 0.8548,-0.82395 0,-5.03204 c 0,-2.76764 -0.06,-5.03206 -0.1317,-5.03206 -1.0368,0 -6.3496,0.77367 -7.1019,1.03419 -2.7777,0.962 -3.9941,2.78389 -3.9941,5.98262 0,2.70457 1.0127,4.45558 3.0397,5.2567 1.2609,0.49833 3.9532,0.41861 5.4473,-0.16131 z m -195.91193,3.12673 c -1.67148,-0.21465 -3.82334,-0.78399 -5.33045,-1.41031 l -1.27188,-0.52856 0,-19.54989 c 0,-16.53358 -0.0387,-19.6423 -0.25027,-20.14886 -0.21419,-0.51264 -0.51762,-0.72956 -2.10518,-1.50497 -1.58588,-0.77459 -1.85492,-0.96679 -1.85492,-1.32513 0,-0.23054 0.0197,-0.4243 0.0438,-0.4306 0.0241,-0.006 2.25429,-0.2353 4.95595,-0.50891 3.69063,-0.37378 4.95794,-0.44727 5.09651,-0.29556 0.1229,0.13452 0.14364,0.99231 0.0622,2.57023 -0.13887,2.68927 -0.20189,14.73626 -0.077,14.73626 0.045,0 0.57069,-0.31599 1.16824,-0.70221 2.88987,-1.8678 5.93434,-2.809 9.06804,-2.80338 3.44104,0.006 5.91583,0.94745 8.00249,3.04372 1.90882,1.91764 2.97989,4.23116 3.54373,7.65456 0.41717,2.53288 0.24858,7.23933 -0.34008,9.49417 -1.67984,6.43452 -6.09698,10.50012 -12.64404,11.63777 -1.70693,0.2966 -6.01735,0.3349 -8.06708,0.0717 z m 7.67038,-1.8132 c 4.17283,-0.7437 6.39479,-3.54375 7.24326,-9.12766 0.38893,-2.55969 0.24104,-8.79291 -0.25067,-10.56521 -0.9801,-3.53258 -2.71506,-5.63099 -5.43005,-6.56759 -0.99006,-0.34153 -1.5356,-0.40872 -3.29189,-0.40545 -2.3389,0.004 -3.47162,0.24095 -5.50348,1.14946 l -1.25063,0.5592 0,11.45255 0,11.45254 0.65785,0.51769 c 2.02044,1.58992 4.63644,2.10287 7.82561,1.53447 z m 47.55965,1.7788 c -2.66213,-0.68063 -4.32533,-2.2801 -5.13862,-4.94178 -0.22329,-0.73076 -0.28471,-2.72459 -0.36797,-11.94649 -0.0777,-8.60721 -0.1498,-11.12935 -0.32411,-11.33919 -0.12329,-0.14843 -0.97194,-0.61288 -1.88588,-1.03212 -1.37197,-0.62934 -1.66174,-0.83027 -1.66174,-1.15236 0,-0.47073 -0.19148,-0.43286 5.15933,-1.0208 3.73332,-0.41022 4.04163,-0.42113 4.33741,-0.15344 0.30098,0.27238 0.32108,0.96655 0.3668,12.67684 l 0.0484,12.38867 0.48967,0.92947 c 0.7761,1.47315 2.44419,2.31602 4.5835,2.31602 1.29484,0 3.73699,-0.50545 6.00108,-1.24204 l 2.17083,-0.70625 -0.004,-10.82363 c -0.002,-5.953 -0.0743,-11.12561 -0.15994,-11.49469 -0.18851,-0.81229 -0.34477,-0.93336 -2.31893,-1.79681 -1.2873,-0.56302 -1.55187,-0.74562 -1.55187,-1.0711 0,-0.4732 -0.19193,-0.43508 5.13508,-1.02031 3.20817,-0.35244 4.06232,-0.39668 4.33781,-0.22463 0.33495,0.20916 0.34417,0.53484 0.39101,13.82222 0.0455,12.89314 0.0651,13.63399 0.37212,14.10261 0.21524,0.32842 0.87835,0.75357 1.97361,1.26539 1.22457,0.57225 1.64947,0.85581 1.64947,1.1008 0,0.39327 0.1698,0.35791 -5.14793,1.07203 -2.20418,0.296 -4.1696,0.48677 -4.36759,0.42394 -0.34315,-0.10893 -0.35487,-0.20354 -0.2507,-2.02405 0.076,-1.32876 0.051,-1.90978 -0.0821,-1.90978 -0.10523,0 -0.75467,0.35101 -1.4432,0.78002 -1.72973,1.07774 -4.33046,2.28211 -5.90082,2.73262 -1.64439,0.47174 -5.08822,0.6269 -6.41054,0.28884 z m 64.21525,0.11837 c -6.1189,-0.96556 -9.99652,-4.85727 -11.4219,-11.46341 -0.24523,-1.13649 -0.32006,-2.22137 -0.31464,-4.56123 0.006,-2.73432 0.0566,-3.25362 0.45919,-4.7489 0.73892,-2.74412 2.01456,-5.0323 3.88951,-6.97678 3.12775,-3.24375 7.58719,-4.81028 12.08556,-4.24543 6.39265,0.8027 9.43235,4.80375 10.03456,13.20807 l 0.10999,1.53504 -10.27188,0 -10.27191,0 0,0.59541 c 0,0.32749 0.0817,1.39125 0.18148,2.36392 0.50367,4.90811 2.27133,8.24594 5.18879,9.79784 1.58669,0.84401 2.81644,1.10226 5.23634,1.09962 2.64991,-0.003 4.69969,-0.40945 7.03297,-1.3949 0.96008,-0.4055 1.84429,-0.77859 1.9649,-0.8291 0.15647,-0.0656 0.21929,0.13338 0.21929,0.69445 0,0.77849 -0.0127,0.79499 -1.27188,1.66329 -1.73774,1.19819 -3.85369,2.23255 -5.69593,2.78438 -1.29961,0.38928 -1.93855,0.46924 -4.08438,0.51112 -1.39906,0.0273 -2.78058,0.0124 -3.07006,-0.0334 z m 8.12276,-21.19986 c 0.0996,-2.97523 -0.53204,-6.02451 -1.52893,-7.38007 -0.28801,-0.39164 -0.94212,-0.94357 -1.45357,-1.22651 -0.85086,-0.47073 -1.07155,-0.51358 -2.59649,-0.50423 -2.06671,0.0127 -3.26692,0.43687 -4.58235,1.61956 -2.02269,1.81857 -3.07948,4.41682 -3.58207,8.80698 l -0.11045,0.96488 6.90048,-0.35086 6.90049,-0.35087 0.0529,-1.57888 z m 90.99439,21.13662 c -2.2122,-0.43984 -4.5463,-1.76755 -5.9727,-3.39745 -0.9226,-1.05412 -2.0044,-3.06294 -2.5148,-4.66951 -1.2171,-3.83115 -1.2114,-9.3567 0.013,-13.15738 1.6275,-5.05033 5.582,-8.73114 10.932,-10.17532 2.063,-0.5569 6.5938,-0.66846 8.7375,-0.21516 l 1.5446,0.32666 -0.054,-5.04294 c -0.064,-6.02709 0.094,-5.60495 -2.5682,-6.90193 -1.4906,-0.72644 -1.7835,-0.93532 -1.7835,-1.27188 0,-0.22149 0.02,-0.40731 0.044,-0.41295 0.6865,-0.16057 9.9116,-0.96432 10.0106,-0.87221 0.078,0.073 0.1575,9.44264 0.1754,20.82143 0.031,19.75349 0.047,20.71096 0.3552,21.18083 0.2144,0.32723 0.8756,0.74894 1.9735,1.25851 1.246,0.57825 1.6513,0.84913 1.6513,1.10347 0,0.4016 0.1833,0.36318 -5.1478,1.07911 -2.2043,0.296 -4.1683,0.4872 -4.3647,0.42489 -0.3374,-0.10709 -0.3503,-0.20347 -0.236,-1.76088 0.074,-1.01126 0.057,-1.6476 -0.046,-1.6476 -0.093,0 -0.8471,0.42686 -1.678,0.94857 -1.6793,1.05431 -3.9146,1.9351 -5.8667,2.31171 -1.3726,0.26482 -4.045,0.30076 -5.2053,0.07 z m 8.9094,-3.40517 c 0.5572,-0.15064 1.6427,-0.56165 2.4122,-0.91337 l 1.3989,-0.63948 0,-11.35519 0,-11.35516 -0.8224,-0.64066 c -2.6823,-2.08982 -6.3974,-2.43453 -9.665,-0.89675 -3.795,1.78605 -5.4734,5.82471 -5.4758,13.17755 0,7.94328 2.0736,11.8026 6.9284,12.8781 0.9878,0.21881 4.0179,0.0708 5.2237,-0.25504 z m 25.0384,3.32691 c -5.3976,-1.15681 -8.7715,-4.36775 -10.3545,-9.85426 -0.5403,-1.87236 -0.747,-4.06122 -0.6547,-6.92797 0.073,-2.25202 0.1646,-2.9561 0.557,-4.26532 1.5888,-5.29955 5.3773,-9.12331 10.3746,-10.47101 1.9421,-0.52373 5.3688,-0.52467 7.3253,-0.002 5.092,1.36036 7.7264,5.41598 8.1354,12.52347 l 0.1085,1.8859 -10.228,0 -10.2279,0 0.1017,1.9736 c 0.334,6.46419 2.9052,10.54086 7.3322,11.62575 0.9909,0.24283 1.7436,0.28538 3.812,0.21549 2.9203,-0.0987 4.5916,-0.49668 7.1815,-1.71034 l 1.4482,-0.67868 0,0.74748 c 0,0.90328 -0.1999,1.1141 -2.3114,2.43678 -1.5897,0.99578 -3.5324,1.84835 -5.3198,2.33467 -1.4503,0.39458 -5.7566,0.493 -7.2804,0.1664 z m 8.9288,-19.54616 c 0.154,-0.0466 -0.1938,-4.58221 -0.4456,-5.81027 -0.7341,-3.58057 -2.5566,-5.10581 -5.807,-4.85999 -3.0721,0.23235 -5.2903,2.12024 -6.5515,5.5763 -0.5414,1.48359 -1.0369,3.93923 -1.0369,5.13977 l 0,0.7226 6.8858,-0.37369 c 3.7871,-0.20554 6.9169,-0.38316 6.9552,-0.39472 z m 15.2361,19.61229 c -1.742,-0.41056 -3.3085,-1.68443 -4.0539,-3.29671 -0.3702,-0.80049 -0.3757,-0.96936 -0.4244,-13.13499 l -0.05,-12.32407 -2.0995,0 c -2.0904,0 -2.0995,-0.002 -2.0995,-0.41474 0,-0.33479 0.1606,-0.47388 0.8333,-0.72143 3.1411,-1.15606 5.8818,-3.84018 7.3409,-7.18935 0.4889,-1.12262 0.5145,-1.14778 1.1626,-1.14778 l 0.6627,0 0,3.59634 0,3.59636 4.2222,0 c 3.9368,0 4.2164,0.0207 4.1365,0.30699 -0.1063,0.38144 -0.224,0.86465 -0.3636,1.49118 l -0.1073,0.48243 -3.9439,0 -3.9439,0 0,11.44692 c 0,7.44642 0.066,11.6785 0.185,12.10957 0.2449,0.88202 1.084,1.8084 1.8841,2.08013 0.9257,0.31439 3.7238,0.22556 5.342,-0.16961 l 1.3595,-0.33203 0,0.54602 c 0,0.47274 -0.1367,0.63191 -1.0087,1.18588 -1.539,0.97763 -2.4042,1.36786 -3.8565,1.73929 -1.4149,0.36189 -3.9642,0.43554 -5.1775,0.1496 z m -367.48465,-1.00355 c 0,-0.48068 0.0374,-0.49944 1.58508,-0.79614 2.1509,-0.41232 2.42453,-0.53787 2.72149,-1.2486 0.37395,-0.89496 0.38289,-35.58687 0.009,-36.48074 -0.3229,-0.77282 -0.42258,-0.82322 -2.47395,-1.251 -1.66692,-0.34762 -1.75707,-0.38937 -1.80992,-0.83819 l -0.0556,-0.47236 14.70414,0.0449 14.70414,0.0449 0.20083,3.9472 c 0.11045,2.17097 0.24376,4.64227 0.29624,5.49181 l 0.0955,1.54459 -0.69335,-0.0534 -0.69335,-0.0534 -1.12314,-2.59359 c -1.91855,-4.43029 -3.15427,-5.85453 -5.45076,-6.28226 -1.10905,-0.20657 -9.5665,-0.11573 -10.48204,0.11258 l -0.48243,0.12031 0,8.6842 0,8.68421 3.37706,-0.0865 c 3.90969,-0.10005 4.88142,-0.31369 5.7075,-1.25454 0.6643,-0.75658 1.31096,-2.12433 1.81601,-3.84101 0.39148,-1.33065 0.40587,-1.35055 0.9762,-1.35055 l 0.57887,0 0,7.71898 0,7.71898 -0.57354,0 c -0.56981,0 -0.57618,-0.009 -0.97867,-1.46826 -0.49973,-1.81107 -1.46237,-4.05822 -1.96993,-4.59849 -0.54175,-0.57667 -1.57352,-0.74257 -5.48363,-0.8817 l -3.44987,-0.12275 0,8.52399 c 0,5.2217 0.0675,8.7016 0.17431,8.98247 0.22893,0.60212 0.9062,0.86397 3.20275,1.23819 1.88517,0.30719 1.88588,0.30749 1.88588,0.8079 l 0,0.5006 -8.15757,0 -8.15757,0 0,-0.49228 z m 59.3281,0.0274 c 0.0504,-0.42202 0.19287,-0.50393 1.54667,-0.88917 0.82016,-0.2334 1.63229,-0.56224 1.80476,-0.73077 0.59442,-0.58085 0.67011,-2.25613 0.61606,-13.63537 -0.0468,-9.86266 -0.0832,-11.09585 -0.33854,-11.48538 -0.15735,-0.24001 -1.0445,-0.82852 -1.97147,-1.30782 -1.36954,-0.70812 -1.68579,-0.94539 -1.68753,-1.26615 -10e-4,-0.21709 0.057,-0.39531 0.12942,-0.39603 0.0723,-9.1e-4 2.17266,-0.27656 4.66734,-0.61299 2.49468,-0.33643 4.60643,-0.56801 4.6928,-0.51463 0.0864,0.0534 0.15703,0.96078 0.15703,2.01645 0,1.05566 0.0692,1.91939 0.15394,1.91939 0.0847,0 0.25872,-0.12623 0.38676,-0.28052 0.42564,-0.51286 2.188,-1.7884 3.3311,-2.41093 3.10856,-1.6929 6.13143,-1.92429 7.65566,-0.58601 0.79371,0.6969 1.10466,1.43597 1.09975,2.61395 -0.009,2.26506 -1.61508,3.69637 -3.78207,3.3714 -1.20259,-0.18034 -1.8377,-0.7041 -2.48583,-2.05002 -0.56557,-1.17449 -0.57606,-1.18417 -1.28407,-1.18417 -0.88227,0 -2.94614,0.84918 -4.07018,1.67468 l -0.83698,0.61468 0.0475,11.56931 c 0.0555,13.50239 -0.20672,12.08871 2.34635,12.6511 2.1881,0.48199 2.17469,0.47609 2.17469,0.9571 l 0,0.42676 -7.20435,0 -7.20435,0 0.0555,-0.46486 z m 53.68208,-8.9e-4 c 0.0505,-0.42397 0.18631,-0.50123 1.51796,-0.86368 1.6556,-0.45062 2.05733,-0.73537 2.30737,-1.63548 0.10864,-0.39114 0.1757,-4.97259 0.17613,-12.03463 9.1e-4,-10.50597 -0.0234,-11.45137 -0.30602,-12.01707 -0.24783,-0.49609 -0.6351,-0.78245 -2.01679,-1.49116 -1.39596,-0.71604 -1.71013,-0.94967 -1.71045,-1.27188 -1.8e-4,-0.2171 0.0708,-0.39472 0.15798,-0.39472 0.0871,0 2.19101,-0.27611 4.67532,-0.61359 3.25533,-0.44222 4.58012,-0.56116 4.74315,-0.42586 0.17095,0.14187 0.2009,0.63457 0.12261,2.01704 -0.057,1.00606 -0.0488,1.82926 0.0183,1.82926 0.067,0 0.59175,-0.39109 1.16609,-0.86906 4.26646,-3.55058 9.51791,-4.32243 11.01572,-1.61908 0.77158,1.3926 0.49487,3.44658 -0.59299,4.40173 -0.82914,0.72799 -1.79137,0.96408 -2.94198,0.72183 -1.21079,-0.25491 -1.60309,-0.58928 -2.27449,-1.93861 -0.48398,-0.97264 -0.63992,-1.14393 -1.08778,-1.19484 -0.94879,-0.10786 -3.23271,0.81015 -4.5887,1.84441 l -0.58942,0.44957 9.1e-4,11.07523 c 9.1e-4,10.95681 0.055,12.10326 0.59121,12.54829 0.12943,0.10741 1.05567,0.37846 2.05832,0.60232 1.72545,0.38524 1.82597,0.43214 1.87851,0.87627 l 0.0555,0.46926 -7.216,0 -7.21601,0 0.0555,-0.46562 z m 112.6271,0 c 0.0505,-0.42397 0.18632,-0.50123 1.51797,-0.86368 1.65559,-0.45062 2.05733,-0.73537 2.30736,-1.63548 0.10865,-0.39114 0.17571,-4.97259 0.17615,-12.03463 0,-10.50597 -0.0234,-11.45137 -0.30604,-12.01707 -0.24784,-0.49609 -0.6351,-0.78245 -2.01678,-1.49116 -1.39596,-0.71604 -1.71012,-0.94967 -1.71046,-1.27188 0,-0.2171 0.0708,-0.39472 0.15797,-0.39472 0.0871,0 2.19102,-0.27611 4.67534,-0.61359 3.42069,-0.46468 4.57535,-0.56512 4.75763,-0.41383 0.19022,0.15785 0.21606,0.58098 0.12322,2.01705 -0.0647,0.99949 -0.063,1.81728 0.004,1.81728 0.0666,0 0.58994,-0.39006 1.16279,-0.86679 2.77309,-2.30779 6.41355,-3.65168 8.61376,-3.17983 0.50433,0.10816 1.18183,0.36036 1.50555,0.56042 1.61154,0.99599 1.83665,3.84589 0.41607,5.26751 -0.83606,0.83668 -1.82295,1.11287 -3.05189,0.85412 -1.21083,-0.25492 -1.60313,-0.5893 -2.27445,-1.9386 -0.5126,-1.03036 -0.62021,-1.1407 -1.16301,-1.19249 -0.82553,-0.0788 -2.50584,0.56232 -3.91878,1.49513 l -1.18416,0.78178 0.002,11.08259 c 0.002,10.96415 0.055,12.11058 0.59121,12.55563 0.12943,0.10741 1.05568,0.37846 2.05832,0.60232 1.72545,0.38525 1.82596,0.43213 1.8785,0.87628 l 0.0547,0.46919 -7.21598,0 -7.216,0 0.0555,-0.46562 z m 23.65107,0.0344 c 0,-0.44242 0.0308,-0.45606 2.823,-1.24982 0.15359,-0.0436 0.46937,-0.28174 0.70173,-0.52906 l 0.42248,-0.44967 0,-12.16423 0,-12.16423 -0.38857,-0.41362 c -0.21371,-0.22751 -1.10182,-0.76325 -1.9736,-1.19057 -1.31012,-0.64215 -1.58504,-0.84674 -1.58504,-1.17941 0,-0.22136 0.0672,-0.40248 0.14942,-0.40248 0.0822,0 2.18823,-0.27435 4.68008,-0.60965 3.53146,-0.47519 4.5859,-0.5638 4.78111,-0.40179 0.20268,0.16822 0.22699,0.55215 0.1274,2.0131 -0.0676,0.99288 -0.0748,1.80525 -0.0158,1.80525 0.059,0 0.7004,-0.47137 1.42536,-1.04746 2.503,-1.98905 6.04362,-3.3535 7.97445,-3.07312 1.89894,0.27575 2.84813,1.096 3.18877,2.75563 0.51845,2.52567 -1.45792,4.51963 -3.96402,3.99936 -1.09308,-0.22692 -1.73083,-0.80532 -2.38252,-2.16079 l -0.43857,-0.91221 -0.8809,0.005 c -1.04098,0.006 -3.14723,0.93008 -4.17187,1.82973 l -0.64876,0.56962 0,10.76223 c 0,11.37305 0.0591,12.36193 0.7605,12.74468 0.2089,0.11399 1.12978,0.37544 2.0464,0.58101 1.56601,0.35121 1.66995,0.40212 1.72211,0.84353 l 0.0555,0.46978 -7.20435,0 -7.20435,0 0,-0.43115 z m 34.5943,-34.3123 c -2.6283,-0.53053 -4.3213,-2.58578 -4.3288,-5.25497 -0.01,-3.00557 1.996,-5.05561 5.1099,-5.22658 1.2478,-0.0685 1.5497,-0.0234 2.3763,0.35504 1.3088,0.59915 2.1463,1.38654 2.7221,2.55907 0.4119,0.83861 0.4895,1.21937 0.4895,2.40019 0,1.22774 -0.065,1.52107 -0.5204,2.34296 -1.1789,2.12845 -3.5717,3.28389 -5.8486,2.82429 z m 1.7301,-1.21991 c 1.3695,-0.38047 2.149,-1.80663 2.1577,-3.94734 0.01,-2.56082 -1.0762,-4.12133 -2.8695,-4.12133 -1.0197,0 -1.8139,0.48744 -2.2787,1.3983 -1.244,2.4384 -0.4941,5.95919 1.4092,6.61647 0.761,0.2628 0.8218,0.26487 1.5813,0.0539 z" style="fill:#3ead38;fill-opacity:1"/>
  </g>
</svg>