<?xml version="1.0" ?><!DOCTYPE svg  PUBLIC '-//W3C//DTD SVG 1.1//EN'  'http://www.w3.org/Graphics/SVG/1.1/DTD/svg11.dtd'><svg enable-background="new 0 0 512 512" id="Layer_1" version="1.1" viewBox="0 0 512 512" xml:space="preserve" xmlns="http://www.w3.org/2000/svg" xmlns:xlink="http://www.w3.org/1999/xlink"><g><g><path d="M136.8,253.9l-56.8,12c-3.6,0.8-7.2-1.6-8.4-5.4L34.2,138.1l92.9-19.6l15.2,127.1    C142.8,249.5,140.4,253.1,136.8,253.9z" fill="#10CEA8"/><path d="M139.4,208.8l-5.4-47.3c-0.1-0.9-0.9-1.6-1.8-1.4l-85.8,18.1c-0.8,0.2-1.3,1.1-1.1,2l14.2,45.4    c0.2,0.8,1,1.2,1.7,1.1l77-16.3C139,210.3,139.5,209.6,139.4,208.8z" fill="#0D2038"/><g><path d="M95.8,197.2c-0.6-0.9-1.4-1.8-2.2-2.7c-0.7-0.9-1.5-1.8-2.2-2.7c-2-2.8-3.4-6-4-9.4     c-6.3,3.5-10,10.2-8.5,16.9c1.7,8,10,13.1,18.9,11.9C99.3,206.5,98.6,201.2,95.8,197.2z" fill="#FFFFFF"/><path d="M110.9,192.4c-1.8-8.4-10.9-13.6-20.3-11.6c-0.2,0-0.4,0.1-0.6,0.1c0.4,3,1.5,5.9,3.3,8.3     c0.6,0.8,1.3,1.6,2,2.4c0.8,1,1.7,2,2.5,3.2c3,4.4,4.2,9.9,3.3,15.1C108.2,206.7,112.4,199.6,110.9,192.4z" fill="#FFFFFF"/></g><path d="M127.7,116.6l-15.1,5l-63.9,13.5l-15.8,1.6l1.7,9.7l10.1,0.5c4.2,0.2,8.4-0.1,12.4-1l52-11    c4.1-0.9,8-2.2,11.8-4.1l9.1-4.6L127.7,116.6z" fill="#0D2038"/><ellipse cx="80.3" cy="126.6" fill="#DBDBDB" rx="48.4" ry="4.5" transform="matrix(0.9784 -0.2067 0.2067 0.9784 -24.4334 19.3351)"/><path d="M61.4,131.5l-8.6,1.8c-0.2,0.1-0.5-0.1-0.5-0.3l0-0.2c-0.1-0.2,0.1-0.5,0.3-0.5l8.6-1.8    c0.2-0.1,0.5,0.1,0.5,0.3l0,0.2C61.8,131.2,61.6,131.4,61.4,131.5z" fill="#9B9B9B"/><path d="M61,131.5L32.7,82L9.4,83.5c-1.5,0.1-2.7,1.1-3.2,2.5C6,86.4,6,87,6,87.5c0.2,2,2,3.5,4,3.3l18.5-1.3    l24.9,43.6L61,131.5z" fill="#0D2038"/></g><g><path d="M219.2,201.4l55.4,17.3c3.5,1.1,7.3-0.9,8.9-4.6l48.7-118.3l-90.6-28.2l-27.1,125.1    C213.6,196.6,215.7,200.3,219.2,201.4z" fill="#FF7069"/><path d="M220.9,156.3l9.8-46.5c0.2-0.9,1.1-1.5,1.9-1.2l83.7,26.1c0.8,0.3,1.2,1.2,0.9,2.1l-18.4,43.9    c-0.3,0.7-1.1,1.1-1.8,0.9l-75.2-23.4C221.1,157.9,220.7,157.1,220.9,156.3z" fill="#0D2038"/><g><path d="M265.3,148.9c0.7-0.9,1.6-1.7,2.4-2.5c0.8-0.8,1.7-1.6,2.5-2.5c2.3-2.6,3.9-5.7,4.9-9     c6,4,9,11.1,6.9,17.6c-2.4,7.8-11.2,12.1-19.9,10C261,157.8,262.2,152.6,265.3,148.9z" fill="#FFFFFF"/><path d="M250.7,142.7c2.6-8.2,12.1-12.5,21.3-9.7c0.2,0.1,0.4,0.1,0.6,0.2c-0.7,3-2.1,5.8-4,8     c-0.7,0.8-1.4,1.5-2.2,2.2c-0.9,0.9-1.9,1.8-2.8,2.9c-3.4,4.1-5.1,9.4-4.7,14.7C252.1,157.2,248.5,149.7,250.7,142.7z" fill="#FFFFFF"/></g><path d="M241.1,65.6l14.6,6.4L318,91.4l15.6,3l-2.6,9.5l-10.1-0.5c-4.2-0.2-8.3-0.9-12.3-2.2l-50.7-15.8    c-4-1.2-7.8-3-11.3-5.2l-8.6-5.4L241.1,65.6z" fill="#0D2038"/><ellipse cx="287.3" cy="80" fill="#DBDBDB" rx="48.4" ry="4.5" transform="matrix(-0.9548 -0.2974 0.2974 -0.9548 537.8817 241.9136)"/><path d="M305.8,86.6l8.4,2.6c0.2,0.1,0.5-0.1,0.6-0.3l0.1-0.2c0.1-0.2-0.1-0.5-0.3-0.6l-8.4-2.6    c-0.2-0.1-0.5,0.1-0.6,0.3l-0.1,0.2C305.4,86.3,305.5,86.6,305.8,86.6z" fill="#9B9B9B"/><path d="M306.1,86.7L339,40.1l23.1,3.7c1.5,0.3,2.6,1.4,2.9,2.7c0.1,0.5,0.1,1,0,1.6c-0.4,2-2.3,3.3-4.3,3l-18.3-3    l-28.9,41L306.1,86.7z" fill="#0D2038"/></g><g><path d="M267.9,342.5L95.6,389c0,0-0.5-59.7-14.3-115.4c-12.5-50.3-45.7-106.9-45.7-106.9s21.9,5.7,89.1-12.4    c63.8-17.2,83.2-34.1,83.2-34.1s-8,37.2,12.6,113.2C239.5,304,267.9,342.5,267.9,342.5z" fill="#26A9E0"/><path d="M53.7,174.8c8.5-1.1,17.1-2.3,25.6-3.2c18.3-1.9,36.6-5.3,54.5-10    c14.7-3.9,29.7-6.9,44.5-10.7c7.5-1.9,14.9-4,22.2-6.4c2.1-0.7,4-1.3,5.8-2c-0.1-14.8,1.5-22.2,1.5-22.2s-19.4,16.9-83.2,34.1    c-67.1,18.1-89.1,12.4-89.1,12.4s1.9,3.3,5,9C45.3,175.7,50.2,175.3,53.7,174.8z" fill="#057CA5" opacity="0.4"/><path d="M145.1,374.2c0.1,0.1,0.2,0.3,0.3,0.4C145.3,374.5,145.2,374.4,145.1,374.2z" fill="#02AD8C" opacity="0.5"/><path d="M145.4,374.7c0,0.1,0.1,0.1,0.1,0.2C145.4,374.8,145.4,374.7,145.4,374.7z" fill="#02AD8C" opacity="0.5"/><path d="M145.5,374.9c0.1,0.1,0.1,0.1,0.1,0.2C145.6,375,145.6,375,145.5,374.9z" fill="#02AD8C" opacity="0.5"/><path d="M144.5,373.4c0.2,0.3,0.4,0.6,0.5,0.8C144.9,374,144.7,373.7,144.5,373.4z" fill="#02AD8C" opacity="0.5"/><path d="M143.8,372.4c0.2,0.4,0.5,0.7,0.7,1C144.3,373.1,144.1,372.7,143.8,372.4z" fill="#02AD8C" opacity="0.5"/><path d="M145.9,375.4C145.9,375.4,145.9,375.4,145.9,375.4C145.9,375.4,145.9,375.4,145.9,375.4z" fill="#02AD8C" opacity="0.5"/><path d="M194.3,348l-99.2,26.8c0.4,8.9,0.5,14.3,0.5,14.3l92.3-24.9c1.7-3.2,3.2-6.6,4.5-10.2    C193.1,352,193.7,350,194.3,348z" fill="#057CA5" opacity="0.4"/><path d="M145.7,375.1C145.7,375.2,145.8,375.2,145.7,375.1C145.8,375.2,145.7,375.2,145.7,375.1z" fill="#02AD8C" opacity="0.5"/><path d="M145.8,375.3C145.8,375.3,145.9,375.3,145.8,375.3C145.9,375.3,145.8,375.3,145.8,375.3z" fill="#02AD8C" opacity="0.5"/><path d="M145.7,375.1C145.7,375.1,145.7,375.1,145.7,375.1C145.7,375.1,145.7,375.1,145.7,375.1z" fill="#02AD8C" opacity="0.5"/><path d="M145.5,374.8C145.5,374.8,145.5,374.9,145.5,374.8C145.5,374.9,145.5,374.8,145.5,374.8z" fill="#02AD8C" opacity="0.5"/><path d="M145.9,375.4C145.9,375.4,145.9,375.4,145.9,375.4C145.9,375.4,145.9,375.4,145.9,375.4z" fill="#02AD8C" opacity="0.5"/><path d="M145.9,375.4C145.9,375.4,145.9,375.4,145.9,375.4C145.9,375.4,145.9,375.4,145.9,375.4z" fill="#02AD8C" opacity="0.5"/><path d="M206.4,148.1c-0.6,1.2-1.2,2.4-1.8,3.7c-0.3,0.7-0.6,1.4-0.9,2c-0.1,0.2-0.2,0.4-0.2,0.5    c0,0.1-0.1,0.1-0.1,0.2c-1,2.6-2,5.2-2.8,7.8c-1.8,5.6-3.3,11.3-4.5,17.1c-0.6,3-1.2,6-1.7,9.1c-0.2,1.5-0.5,3-0.7,4.5    c0,0.2-0.2,1.6-0.2,1.5c0,0.3-0.1,0.5-0.1,0.8c-0.7,5.5-1.2,11.1-1.6,16.7c-0.8,12.2-0.9,24.3,0.2,36.4    c3,34.7,12.5,71.5,0.4,105.6c-1.3,3.6-2.8,6.9-4.5,10.2l79.9-21.6c0,0-28.4-38.5-47.4-109C210.1,195.3,207,166.9,206.4,148.1z" fill="#057CA5" opacity="0.4"/><path d="M145.8,375.2C145.8,375.3,145.8,375.3,145.8,375.2C145.8,375.3,145.8,375.3,145.8,375.2z" fill="#02AD8C" opacity="0.5"/><path d="M143.8,372.3C143.8,372.3,143.8,372.4,143.8,372.3C143.8,372.4,143.8,372.3,143.8,372.3z" fill="#02AD8C" opacity="0.5"/><path d="M145.1,374.2C145.1,374.2,145.1,374.2,145.1,374.2C145.1,374.2,145.1,374.2,145.1,374.2z" fill="#02AD8C" opacity="0.5"/><path d="M145.3,374.6C145.4,374.6,145.4,374.7,145.3,374.6C145.4,374.7,145.4,374.6,145.3,374.6z" fill="#02AD8C" opacity="0.5"/><path d="M144.5,373.4C144.5,373.4,144.5,373.4,144.5,373.4C144.5,373.4,144.5,373.4,144.5,373.4z" fill="#02AD8C" opacity="0.5"/><path d="M191.4,221.5L75.1,252.9l11,40.6l107.7-29.1c-0.7-5.4-1.3-10.8-1.8-16.1    C191.2,239.4,191.1,230.5,191.4,221.5z" fill="#057CA5" opacity="0.4"/><ellipse cx="151.7" cy="254.7" fill="#F2F2F2" rx="44.8" ry="30.1" transform="matrix(0.9655 -0.2606 0.2606 0.9655 -61.1117 48.3302)"/><path d="M143.4,223.6c-25.5,6.9-42.5,26.4-37.8,43.5c4.6,17.1,29.1,25.5,54.6,18.6    s42.5-26.4,37.8-43.5C193.3,225,168.9,216.7,143.4,223.6z M159.2,282.3c-22.7,6.1-44.5-1.3-48.6-16.5c-4.1-15.3,11-32.6,33.7-38.7    c22.7-6.1,44.5,1.3,48.6,16.5C197,258.8,181.9,276.2,159.2,282.3z" fill="#057CA5" opacity="0.4"/><g opacity="0.4"><path d="M133.9,263.1L133.9,263.1c0.6,1.8,0.4,3.3-0.4,4.5c-0.8,1.2-2.1,2.1-4,2.6c-1.9,0.5-3.7,0.4-5.2-0.5     c-1.5-0.9-2.5-2.3-3-4.2l-0.9-3.3c-0.5-1.9-0.4-3.6,0.4-5.1c0.8-1.5,2.1-2.5,4-3c2-0.5,3.7-0.5,5,0.1s2.2,1.8,2.7,3.6l0,0.1     l-3.6,1c-0.3-1-0.7-1.6-1.2-1.9c-0.5-0.3-1.3-0.3-2.2-0.1c-0.8,0.2-1.4,0.7-1.6,1.5c-0.3,0.8-0.2,1.7,0.1,2.8l0.9,3.3     c0.3,1.1,0.8,1.9,1.4,2.4c0.7,0.5,1.4,0.7,2.3,0.4c0.8-0.2,1.4-0.6,1.6-1.1c0.3-0.5,0.3-1.3,0-2.2L133.9,263.1z" fill="#057CA5"/><path d="M150.4,264.3l-3.6,1l-1.7-6.3l-5.8,1.6l1.7,6.3l-3.6,1l-4.2-15.7l3.6-1l1.8,6.6l5.8-1.6l-1.8-6.6l3.6-1     L150.4,264.3z" fill="#057CA5"/><path d="M156.8,262.6l-3.6,1l-4.2-15.7l3.6-1L156.8,262.6z" fill="#057CA5"/><path d="M161.7,255.5l1.5,5.4l-3.6,1l-4.2-15.7l6-1.6c1.9-0.5,3.5-0.4,4.8,0.2c1.3,0.7,2.2,1.8,2.7,3.3     c0.4,1.5,0.2,2.9-0.6,4.2c-0.8,1.2-2.2,2.1-4.1,2.6L161.7,255.5z M161,252.7l2.4-0.6c0.8-0.2,1.3-0.6,1.6-1.1     c0.3-0.5,0.4-1.2,0.2-1.8c-0.2-0.7-0.5-1.2-1.1-1.5c-0.5-0.3-1.2-0.4-2-0.2l-2.4,0.6L161,252.7z" fill="#057CA5"/><path d="M180.6,251.7c-0.2-0.6-0.5-0.9-0.9-1.1c-0.4-0.2-1.2-0.3-2.3-0.4c-2.1-0.1-3.8-0.4-4.9-0.9     c-1.1-0.5-1.9-1.4-2.3-2.7c-0.4-1.3-0.1-2.5,0.8-3.6c0.9-1.1,2.2-1.9,3.9-2.4c1.8-0.5,3.3-0.5,4.7,0.1c1.3,0.5,2.2,1.6,2.5,3.1     l0,0.1l-3.5,1c-0.2-0.7-0.5-1.2-1-1.5c-0.5-0.2-1.1-0.2-2,0c-0.7,0.2-1.1,0.5-1.4,0.9c-0.3,0.4-0.4,0.9-0.2,1.4     c0.1,0.5,0.4,0.8,0.9,0.9c0.5,0.2,1.3,0.3,2.5,0.4c2,0,3.5,0.3,4.7,0.9c1.1,0.5,1.9,1.5,2.3,2.8c0.4,1.4,0.1,2.6-0.7,3.7     c-0.9,1.1-2.2,1.8-4,2.3c-1.8,0.5-3.4,0.5-4.9,0c-1.5-0.5-2.4-1.7-2.9-3.5l0-0.1l3.6-1c0.2,0.9,0.6,1.5,1.2,1.8     c0.6,0.3,1.3,0.3,2.2,0c0.8-0.2,1.3-0.5,1.6-0.9C180.7,252.6,180.8,252.2,180.6,251.7z" fill="#057CA5"/></g></g><g><path d="M387,143.6c-2.9,7.4-4.6,15.8-4.6,24.6c0,31.7,21.3,57.3,47.5,57.3c26.2,0,47.5-25.7,47.5-57.3    c0-8.8-1.6-17.1-4.6-24.6H387z" fill="#6E4224"/><ellipse cx="429.9" cy="144.4" fill="#BA703D" rx="43.1" ry="13"/><path d="M429.9,153c-10.5,0-20.4-1.2-28-3.3c-5.4-1.5-8.3-3.1-9.7-4.2c-0.7-0.6-0.7-1.6,0-2.2    c1.4-1.1,4.2-2.7,9.7-4.2c7.6-2.1,17.6-3.3,28-3.3c10.5,0,20.4,1.2,28,3.3c5.4,1.5,8.3,3.1,9.7,4.2c0.7,0.6,0.7,1.6,0,2.2    c-1.4,1.1-4.2,2.7-9.7,4.2C450.4,151.8,440.4,153,429.9,153z" fill="#F4E6CE"/><path d="M468.8,115.8l-3.3-1.3l-15,36.8c1.4-0.2,2.8-0.5,4.2-0.8L468.8,115.8z" fill="#303842"/><path d="M416.4,152l-15.6-33.1c-1.1-2.3-3.2-3.9-5.7-4.3c-2.5-0.4-5.1,0.4-6.9,2.1l-11.9,11.7    c-0.9,0.8-0.9,2.2,0,3.1c0.8,0.9,2.2,0.9,3.1,0l11.9-11.7c0.8-0.8,1.9-1.1,3-0.9c1.1,0.2,2,0.9,2.5,1.9l14.5,30.8    c1.7,0.3,3.4,0.5,5.1,0.6C416.4,152.1,416.4,152.1,416.4,152z" fill="#303842"/><g><ellipse cx="470.7" cy="106.3" fill="#FF6650" id="XMLID_59_" rx="0.9" ry="3.3" transform="matrix(0.934 0.3573 -0.3573 0.934 69.0527 -161.176)"/><path d="M471,105.6L471,105.6c-9.8,5.6-0.4,23.4,0.6,25.1c0,0.1,0.1,0.1,0.2,0.1     c3.2-0.8,6.6-0.7,9.9,0.6c0,0,0,0,0,0c0,0,0,0,0,0c3.2,1.2,7.5,5.9,7.9,6.3c0,0,0,0,0,0C489.7,136.7,491.3,112.7,471,105.6z" fill="#D94452" id="XMLID_49_"/><path d="M470.9,105.6L470.9,105.6c3.6,11-16.3,18-17.3,18.4c0,0,0,0-0.1,0     c-0.4-0.4-4.7-5.1-7.9-6.3c0,0,0,0,0,0c0,0,0,0,0,0c-3.1-1.2-8.9-0.7-10-0.6c-0.1,0-0.1-0.1-0.1-0.1     C436.9,115.3,451.5,97.5,470.9,105.6z" fill="#D94452" id="XMLID_48_"/><path d="M471,105.7L471,105.7c-9.8,5.6-16.7,17.3-17.3,18.3c0,0,0,0.1,0,0.1     c0.8-0.1,6.9-0.6,10,0.5c0,0,0,0,0,0c0,0,0,0,0,0c3,1.1,7,5.3,7.7,6.2c0.1,0.1,0.2,0,0.2-0.1C472,129,474.4,116.1,471,105.7z" fill="#F48C6C" id="XMLID_25_"/></g><ellipse cx="415.4" cy="141.8" fill="#C4AC8E" rx="1.5" ry="0.8"/><ellipse cx="419.6" cy="147.4" fill="#C4AC8E" rx="1.4" ry="0.7"/><ellipse cx="405.4" cy="146.4" fill="#C4AC8E" rx="1.8" ry="0.9"/><ellipse cx="399.1" cy="143.6" fill="#C4AC8E" rx="1.1" ry="0.5"/><ellipse cx="425" cy="141.8" fill="#C4AC8E" rx="1.4" ry="0.7"/><ellipse cx="446.9" cy="149.6" fill="#C4AC8E" rx="1.5" ry="0.7"/><ellipse cx="450.6" cy="141.8" fill="#C4AC8E" rx="1.3" ry="0.7"/><ellipse cx="444.4" cy="145.8" fill="#C4AC8E" rx="1.1" ry="0.5"/><ellipse cx="429.9" cy="150.3" fill="#C4AC8E" rx="1.1" ry="0.5"/><ellipse cx="441.1" cy="139.4" fill="#C4AC8E" rx="1.1" ry="0.5"/><ellipse cx="459.7" cy="147.1" fill="#C4AC8E" rx="1.3" ry="0.7"/><path d="M430.7,218.8c-1.1,0-2-0.7-2.2-1.8c-0.2-1.2,0.6-2.3,1.7-2.6c0.1,0,7.1-1.4,14.4-5.6    c9.5-5.6,15.1-13.2,16.4-22.8c0.2-1.2,1.3-2,2.5-1.9c1.2,0.2,2,1.3,1.9,2.5c-1.5,10.8-8,19.8-18.6,26c-7.9,4.6-15.3,6-15.7,6.1    C430.9,218.8,430.8,218.8,430.7,218.8z" fill="#8A532D"/></g><g><path d="M409.4,459.5H153.7c0,0,21.6-82.8,23.2-165c1.5-74.3-23.2-165-23.2-165s28.2,16.1,127.9,16.1    c94.7,0,127.9-16.1,127.9-16.1s-24.9,48.5-24.9,161.4C384.5,395.6,409.4,459.5,409.4,459.5z" fill="#10CEA8"/><path d="M175.7,147.4c12.3,1.6,24.5,3.2,36.7,5.2c26,4.2,52.6,6.4,79.1,6.5    c21.9,0.1,43.7,1.5,65.6,1.8c11.1,0.1,22.1,0.1,33.2-0.6c3.1-0.2,6-0.4,8.8-0.6c5.5-20.5,10.4-30.1,10.4-30.1    s-33.2,16.1-127.9,16.1c-99.6,0-127.9-16.1-127.9-16.1s1.4,5.3,3.6,14.4C163.7,145.5,170.7,146.7,175.7,147.4z" fill="#02AD8C" opacity="0.5"/><path d="M408.7,457.5c0.1,0.2,0.2,0.4,0.2,0.6C408.8,458,408.8,457.8,408.7,457.5z" fill="#02AD8C" opacity="0.5"/><path d="M408.9,458.2c0,0.1,0.1,0.2,0.1,0.2C409,458.4,409,458.3,408.9,458.2z" fill="#02AD8C" opacity="0.5"/><path d="M404.5,444.5c0.1,0.2,0.1,0.4,0.2,0.6C404.6,444.9,404.6,444.7,404.5,444.5z" fill="#02AD8C" opacity="0.5"/><path d="M405,446.1c0.1,0.3,0.2,0.5,0.2,0.8C405.1,446.6,405.1,446.3,405,446.1z" fill="#02AD8C" opacity="0.5"/><path d="M409.1,458.6c0,0.1,0.1,0.2,0.1,0.3C409.2,458.8,409.1,458.7,409.1,458.6z" fill="#02AD8C" opacity="0.5"/><path d="M405.7,448.4c0.1,0.5,0.3,0.9,0.4,1.4C406,449.3,405.8,448.9,405.7,448.4z" fill="#02AD8C" opacity="0.5"/><path d="M407,452.4c0.2,0.7,0.4,1.3,0.6,1.9C407.4,453.8,407.2,453.1,407,452.4z" fill="#02AD8C" opacity="0.5"/><path d="M408.2,456.2c0.2,0.5,0.3,0.9,0.5,1.3C408.5,457.1,408.4,456.7,408.2,456.2z" fill="#02AD8C" opacity="0.5"/><path d="M406.2,450.1c0.2,0.8,0.5,1.5,0.7,2.2C406.7,451.6,406.4,450.9,406.2,450.1z" fill="#02AD8C" opacity="0.5"/><path d="M405.4,447.4c0.1,0.2,0.1,0.5,0.2,0.7C405.5,447.9,405.5,447.7,405.4,447.4z" fill="#02AD8C" opacity="0.5"/><path d="M407.6,454.5c0.2,0.6,0.4,1.1,0.6,1.6C408,455.6,407.8,455.1,407.6,454.5z" fill="#02AD8C" opacity="0.5"/><path d="M409.4,459.4C409.4,459.4,409.4,459.5,409.4,459.4C409.4,459.5,409.4,459.4,409.4,459.4z" fill="#02AD8C" opacity="0.5"/><path d="M403.6,441.2c0,0.1,0.1,0.3,0.1,0.4C403.6,441.5,403.6,441.4,403.6,441.2z" fill="#02AD8C" opacity="0.5"/><path d="M305.6,439.6H158.3c-2.7,12.5-4.7,19.9-4.7,19.9h137.1c3.6-3.8,6.9-8,10-12.4    C302.4,444.6,304,442.1,305.6,439.6z" fill="#02AD8C" opacity="0.5"/><path d="M403.1,439.7C403.1,439.7,403.1,439.7,403.1,439.7C403.1,439.7,403.1,439.7,403.1,439.7z" fill="#02AD8C" opacity="0.5"/><path d="M409.2,459c0,0,0,0.1,0,0.1C409.3,459.1,409.2,459,409.2,459z" fill="#02AD8C" opacity="0.5"/><path d="M409.3,459.2c0,0,0,0.1,0,0.1C409.3,459.3,409.3,459.3,409.3,459.2z" fill="#02AD8C" opacity="0.5"/><path d="M404.1,443.1c0,0.2,0.1,0.3,0.1,0.5C404.2,443.4,404.1,443.2,404.1,443.1z" fill="#02AD8C" opacity="0.5"/><path d="M405.6,448.1c0,0.1,0.1,0.2,0.1,0.3C405.7,448.3,405.6,448.2,405.6,448.1z" fill="#02AD8C" opacity="0.5"/><path d="M404.2,443.5c0.1,0.3,0.2,0.6,0.3,0.9C404.4,444.2,404.3,443.9,404.2,443.5z" fill="#02AD8C" opacity="0.5"/><path d="M404.7,445.1c0.1,0.3,0.2,0.7,0.3,1C404.9,445.8,404.8,445.4,404.7,445.1z" fill="#02AD8C" opacity="0.5"/><path d="M403.7,441.7c0.1,0.5,0.3,1,0.4,1.4C404,442.6,403.8,442.1,403.7,441.7z" fill="#02AD8C" opacity="0.5"/><path d="M405.2,446.9c0.1,0.2,0.1,0.4,0.2,0.5C405.3,447.3,405.3,447.1,405.2,446.9z" fill="#02AD8C" opacity="0.5"/><path d="M403.1,439.7c0.1,0.5,0.3,1,0.4,1.6C403.4,440.7,403.3,440.2,403.1,439.7z" fill="#02AD8C" opacity="0.5"/><path d="M409.2,458.9C409.2,458.9,409.2,459,409.2,458.9C409.2,459,409.2,458.9,409.2,458.9z" fill="#02AD8C" opacity="0.5"/><path d="M409,458.5c0,0,0,0.1,0,0.1C409.1,458.5,409,458.5,409,458.5z" fill="#02AD8C" opacity="0.5"/><path d="M409.4,459.4C409.4,459.4,409.4,459.4,409.4,459.4C409.4,459.4,409.4,459.4,409.4,459.4z" fill="#02AD8C" opacity="0.5"/><path d="M406.1,449.8c0,0.1,0.1,0.2,0.1,0.3C406.2,450,406.1,449.9,406.1,449.8z" fill="#02AD8C" opacity="0.5"/><path d="M409.4,459.5C409.4,459.5,409.4,459.5,409.4,459.5C409.4,459.5,409.4,459.5,409.4,459.5z" fill="#02AD8C" opacity="0.5"/><path d="M397.1,167.5c-1.3,1.5-2.6,2.9-3.8,4.4c-0.7,0.8-1.4,1.6-2,2.5c-0.2,0.3-0.3,0.4-0.5,0.6    c-0.1,0.1-0.1,0.2-0.2,0.3c-2.4,3.2-4.7,6.4-6.8,9.7c-4.6,7.1-8.8,14.4-12.7,21.9c-2,3.9-3.9,7.9-5.7,11.9c-0.9,2-1.8,4-2.7,6    c-0.1,0.2-0.9,2.2-0.9,2c-0.1,0.3-0.3,0.7-0.4,1c-3,7.4-5.8,14.9-8.4,22.5c-5.6,16.5-10.3,33.3-13.3,50.5    c-8.8,49.2-9.4,103.7-38.9,146.2c-3.1,4.4-6.4,8.6-10,12.4h118.7c0,0-24.9-63.9-24.9-168.6C384.5,234.1,390.8,193.7,397.1,167.5z" fill="#02AD8C" opacity="0.5"/><path d="M409.3,459.1c0,0,0,0.1,0,0.1C409.3,459.2,409.3,459.2,409.3,459.1z" fill="#02AD8C" opacity="0.5"/><path d="M407.6,454.4c0,0,0,0.1,0,0.1C407.6,454.4,407.6,454.4,407.6,454.4z" fill="#02AD8C" opacity="0.5"/><path d="M406.9,452.3c0,0.1,0,0.1,0.1,0.2C406.9,452.4,406.9,452.3,406.9,452.3z" fill="#02AD8C" opacity="0.5"/><path d="M408.7,457.5C408.7,457.5,408.7,457.5,408.7,457.5C408.7,457.5,408.7,457.5,408.7,457.5z" fill="#02AD8C" opacity="0.5"/><path d="M408.9,458.2C408.9,458.2,408.9,458.2,408.9,458.2C408.9,458.2,408.9,458.2,408.9,458.2z" fill="#02AD8C" opacity="0.5"/><path d="M408.2,456.1C408.2,456.1,408.2,456.1,408.2,456.1C408.2,456.1,408.2,456.1,408.2,456.1z" fill="#02AD8C" opacity="0.5"/><path d="M385.3,323.8v-60.3H385c-0.3,8.7-0.5,17.8-0.5,27.5C384.5,302.4,384.8,313.3,385.3,323.8z" fill="#02AD8C" opacity="0.5"/><path d="M348.8,263.5H176.2v60.3H336c1.1-7.7,2.2-15.4,3.6-22.9C341.9,288.2,345,275.7,348.8,263.5z    " fill="#02AD8C" opacity="0.5"/><ellipse cx="281.5" cy="294.5" fill="#F2F2F2" rx="64.2" ry="43.1"/><path d="M281.5,248.4c-37.9,0-68.6,20.6-68.6,46.1c0,25.5,30.7,46.1,68.6,46.1s68.6-20.6,68.6-46.1    C350.1,269.1,319.4,248.4,281.5,248.4z M281.5,335.5c-33.7,0-61.1-18.4-61.1-41c0-22.7,27.3-41,61.1-41c33.7,0,61.1,18.4,61.1,41    C342.6,317.2,315.3,335.5,281.5,335.5z" fill="#009679"/><path d="M220,368.4c2.1-73-2.7-98.9-21.3-139c-18.5-39.9-11.5-91.8-11.5-91.8c0-0.3,2.7-1.4,3-1.6    c1-0.7,2-1.5,2.6-2.6c1.4-2.8,0-5.6-2.1-7.5c-2.3-2.1-4.7-2.8-7.8-2.9c-3.3-0.1-6.6,0.1-9.9,0c-0.8,0-1.6,0-2.4,0h-3.3    c-2.9,0-5.7,0.1-8.6,0.1c-3.7,0-7.3-0.4-10.4,1.9c-2.6,1.9-4.6,5-3.2,8.3c0.9,2.1,3.6,3.4,5.6,4.3c0,0,7,51.9-11.5,91.8    c-18.6,40.2-23.4,66-21.3,139v70.5c-0.1,0.8-0.2,1.5-0.2,2.3v6.3c0,10.4,8.4,18.8,18.7,18.8h64.8c10.4,0,18.7-8.4,18.7-18.8v-6.3    c0-0.6,0-1.3-0.1-1.9V368.4z" fill="#804F3D"/><g><path d="M149.7,137H188c0.8-0.4,2-0.9,2.2-1.1c1-0.7,2-1.5,2.6-2.6c1.4-2.8,0-5.6-2.1-7.5     c-2.3-2.1-4.7-2.8-7.8-2.9c-3.3-0.1-6.6,0.1-9.9,0c-0.8,0-1.6,0-2.4,0h-3.3c-2.9,0-5.7,0.1-8.6,0.1c-3.7,0-7.3-0.4-10.4,1.9     c-2.6,1.9-4.6,5-3.2,8.3C146,134.9,147.9,136.1,149.7,137z" fill="#ED8B69" opacity="0.5"/></g><path d="M185.9,161h-33.8c0,18.6-2.2,45.3-12.7,68.1h59.1C188.1,206.3,185.9,179.6,185.9,161z" fill="#CCC0BC"/><path d="M118,396.5h102v-28.2c0.5-16.5,0.6-30.6,0.3-43H117.8c-0.3,12.4-0.2,26.5,0.3,43V396.5z" fill="#CCC0BC"/><path d="M186.1,169.6c-0.1-3-0.2-5.9-0.1-8.6h-33.8c0,2.7,0,5.6-0.2,8.6H186.1z" fill="#BF552B" opacity="0.5"/><path d="M143,220.5c-1.1,2.9-2.2,5.8-3.5,8.6h59.1c-1.3-2.8-2.5-5.7-3.5-8.6H143z" fill="#BF552B" opacity="0.5"/><path d="M220.5,334.7c0-3.2-0.1-6.4-0.2-9.4H117.8c-0.1,3-0.1,6.2-0.2,9.4H220.5z" fill="#BF552B" opacity="0.5"/><rect fill="#BF552B" height="9" opacity="0.5" width="102" x="118" y="387.6"/><g><path d="M253.7,299.5L253.7,299.5c0.1,2.8-0.7,4.8-2.2,6.1c-1.5,1.4-3.7,2.1-6.6,2.1c-2.9,0-5.2-0.9-6.9-2.6     c-1.7-1.8-2.6-4.1-2.6-6.9v-4.9c0-2.8,0.8-5.1,2.5-6.9c1.7-1.8,3.9-2.7,6.7-2.7c3,0,5.2,0.7,6.9,2.1c1.6,1.4,2.4,3.4,2.4,6l0,0.1     h-5.3c0-1.4-0.3-2.5-0.9-3.1c-0.6-0.6-1.6-0.9-3-0.9c-1.2,0-2.2,0.5-2.8,1.5c-0.7,1-1,2.3-1,3.9v4.9c0,1.6,0.4,2.9,1.1,3.9     c0.7,1,1.7,1.5,3.1,1.5c1.2,0,2.1-0.3,2.7-0.9c0.5-0.6,0.8-1.7,0.8-3.1H253.7z" fill="#009679"/><path d="M276.2,307.4h-5.4V298h-8.6v9.4h-5.4V284h5.4v9.8h8.6V284h5.4V307.4z" fill="#009679"/><path d="M285.6,307.4h-5.4V284h5.4V307.4z" fill="#009679"/><path d="M295.1,299.4v8h-5.4V284h8.9c2.8,0,5,0.7,6.6,2.1c1.6,1.4,2.4,3.3,2.4,5.6c0,2.3-0.8,4.1-2.4,5.6     c-1.6,1.4-3.8,2.1-6.6,2.1H295.1z M295.1,295.2h3.5c1.2,0,2.1-0.3,2.7-1c0.6-0.6,0.9-1.5,0.9-2.5c0-1-0.3-1.9-0.9-2.5     c-0.6-0.7-1.5-1-2.7-1h-3.5V295.2z" fill="#009679"/><path d="M322.6,301.2c0-0.8-0.3-1.5-0.8-1.9c-0.5-0.4-1.5-0.9-3-1.4c-2.9-0.9-5-1.9-6.4-3     c-1.4-1.1-2.1-2.6-2.1-4.6c0-2,0.8-3.5,2.5-4.7c1.6-1.2,3.7-1.8,6.2-1.8c2.7,0,4.8,0.6,6.4,1.9c1.6,1.2,2.4,3,2.4,5.3l0,0.1h-5.3     c0-1.1-0.3-1.9-0.9-2.4c-0.6-0.5-1.5-0.7-2.7-0.7c-1,0-1.8,0.2-2.3,0.7c-0.6,0.5-0.8,1.1-0.8,1.8c0,0.7,0.3,1.2,0.9,1.6     c0.6,0.4,1.7,0.9,3.3,1.5c2.7,0.8,4.7,1.8,6.1,2.9c1.4,1.2,2.1,2.7,2.1,4.7c0,2.1-0.8,3.7-2.4,4.8c-1.6,1.2-3.7,1.7-6.4,1.7     c-2.6,0-4.9-0.6-6.7-1.9c-1.8-1.2-2.7-3.2-2.7-5.9l0-0.1h5.3c0,1.4,0.3,2.3,1,2.9c0.7,0.6,1.7,0.9,3.1,0.9c1.1,0,2-0.2,2.5-0.7     C322.3,302.5,322.6,301.9,322.6,301.2z" fill="#009679"/></g><g opacity="0.5"><path d="M136.1,365.5L136.1,365.5c0,1.5-0.4,2.6-1.2,3.3c-0.8,0.7-2,1.1-3.5,1.1c-1.5,0-2.8-0.5-3.7-1.4     c-0.9-0.9-1.4-2.2-1.4-3.7v-2.6c0-1.5,0.5-2.8,1.4-3.7c0.9-0.9,2.1-1.4,3.6-1.4c1.6,0,2.8,0.4,3.7,1.1c0.9,0.7,1.3,1.8,1.3,3.2     l0,0.1h-2.8c0-0.8-0.2-1.3-0.5-1.7c-0.3-0.3-0.9-0.5-1.6-0.5c-0.7,0-1.2,0.3-1.5,0.8c-0.3,0.5-0.5,1.2-0.5,2.1v2.6     c0,0.9,0.2,1.6,0.6,2.1c0.4,0.5,0.9,0.8,1.7,0.8c0.7,0,1.1-0.2,1.4-0.5c0.3-0.3,0.4-0.9,0.4-1.7H136.1z" fill="#BF552B"/><path d="M148.1,364.6c0,1.5-0.5,2.8-1.5,3.8c-1,1-2.3,1.5-3.8,1.5c-1.6,0-2.9-0.5-3.9-1.5c-1-1-1.5-2.3-1.5-3.8     v-2.3c0-1.5,0.5-2.8,1.5-3.8c1-1,2.3-1.5,3.9-1.5c1.6,0,2.9,0.5,3.8,1.5c1,1,1.5,2.3,1.5,3.8V364.6z M145.2,362.3     c0-0.9-0.2-1.6-0.6-2.2c-0.4-0.6-1-0.9-1.8-0.9c-0.8,0-1.4,0.3-1.8,0.9c-0.4,0.6-0.6,1.3-0.6,2.2v2.3c0,0.9,0.2,1.6,0.6,2.2     c0.4,0.6,1,0.9,1.8,0.9c0.8,0,1.4-0.3,1.8-0.9c0.4-0.6,0.6-1.3,0.6-2.2V362.3z" fill="#BF552B"/><path d="M152.8,367.5h5.4v2.2h-8.3v-12.5h2.9V367.5z" fill="#BF552B"/><path d="M159.7,369.7v-12.5h4.6c1.5,0,2.7,0.5,3.7,1.4c1,1,1.5,2.2,1.5,3.7v2.3c0,1.5-0.5,2.7-1.5,3.7     c-1,1-2.2,1.4-3.7,1.4H159.7z M162.6,359.4v8.1h1.7c0.7,0,1.2-0.3,1.6-0.8c0.4-0.5,0.6-1.2,0.6-2.1v-2.3c0-0.8-0.2-1.5-0.6-2.1     c-0.4-0.5-1-0.8-1.6-0.8H162.6z" fill="#BF552B"/><path d="M174.1,364.9v4.8h-2.9v-12.5h4.4c1.5,0,2.6,0.3,3.4,1c0.8,0.7,1.3,1.6,1.3,2.8c0,0.6-0.2,1.2-0.5,1.7     c-0.3,0.5-0.8,0.8-1.5,1.1c0.8,0.2,1.3,0.6,1.7,1.1c0.3,0.5,0.5,1.1,0.5,1.9v0.8c0,0.3,0,0.7,0.1,1.1c0.1,0.4,0.3,0.7,0.5,0.9     v0.2h-3c-0.2-0.2-0.4-0.5-0.4-0.9c-0.1-0.4-0.1-0.9-0.1-1.3v-0.8c0-0.6-0.2-1.1-0.5-1.4c-0.3-0.3-0.8-0.5-1.4-0.5H174.1z      M174.1,362.7h1.5c0.6,0,1-0.1,1.3-0.4c0.3-0.3,0.5-0.6,0.5-1.1c0-0.5-0.2-0.9-0.5-1.2s-0.8-0.5-1.3-0.5h-1.5V362.7z" fill="#BF552B"/><path d="M185.6,369.7h-2.9v-12.5h2.9V369.7z" fill="#BF552B"/><path d="M198.2,369.7h-2.9l-4.6-7.9l-0.1,0v7.9h-2.9v-12.5h2.9l4.6,7.9l0.1,0v-7.9h2.9V369.7z" fill="#BF552B"/><path d="M203.9,364.7h-0.8v5h-2.9v-12.5h2.9v4.9h0.6l2.8-4.9h3.7l-3.9,5.7l4.3,6.8h-3.7L203.9,364.7z" fill="#BF552B"/></g></g><g><path d="M426.7,392c15.2-58,16.1-79.5,8.7-115.1c-7.4-35.4,7.8-75.5,7.8-75.5c0.1-0.2,2.4-0.6,2.7-0.7    c0.9-0.3,1.9-0.8,2.5-1.6c1.6-2,1.1-4.5-0.3-6.4c-1.4-2.1-3.3-3.1-5.7-3.8c-2.6-0.7-5.3-1.2-7.9-1.8c-0.6-0.2-1.3-0.3-1.9-0.4    l-2.6-0.6c-2.3-0.5-4.6-1-6.9-1.5c-2.9-0.7-5.8-1.7-8.7-0.4c-2.4,1-4.6,3.2-4.1,6c0.3,1.9,2.3,3.4,3.7,4.5c0,0-4,42.8-26.2,71.3    c-22.3,28.7-30.9,48.4-42.8,107.2l-13,56.3c-0.2,0.6-0.4,1.2-0.5,1.8l-1.2,5c-1.9,8.3,3.2,16.6,11.5,18.5l51.8,12    c8.3,1.9,16.5-3.3,18.5-11.5l1.2-5c0.1-0.5,0.2-1,0.3-1.5L426.7,392z" fill="#804F3D"/><g><path d="M413.3,194l30.7,7.1c0.7-0.2,1.8-0.4,2-0.4c0.9-0.3,1.9-0.8,2.5-1.6c1.6-2,1.1-4.5-0.3-6.4     c-1.4-2.1-3.3-3.1-5.7-3.8c-2.6-0.7-5.3-1.2-7.9-1.8c-0.6-0.2-1.3-0.3-1.9-0.4l-2.6-0.6c-2.3-0.5-4.6-1-6.9-1.5     c-2.9-0.7-5.8-1.7-8.7-0.4c-2.4,1-4.6,3.2-4.1,6C410.7,191.7,412,193,413.3,194z" fill="#ED8B69" opacity="0.5"/></g><path d="M437.8,219.9l-27-6.2c-3.4,14.9-10.1,35.8-22.7,52.1l47.3,10.9C431.2,256.5,434.3,234.8,437.8,219.9z" fill="#CCC0BC"/><path d="M340,395.7l81.5,18.9l5.2-22.5c3.4-13.1,6.1-24.4,8.2-34.4l-82-19c-2.5,9.9-5.1,21.2-7.7,34.5L340,395.7z" fill="#CCC0BC"/><path d="M436.3,226.8c0.5-2.4,1-4.7,1.5-6.9l-27-6.2c-0.5,2.2-1.1,4.5-1.7,6.9L436.3,226.8z" fill="#BF552B" opacity="0.5"/><path d="M392.5,259.5c-1.4,2.1-2.8,4.2-4.4,6.2l47.3,10.9c-0.5-2.5-0.9-5-1.2-7.5L392.5,259.5z" fill="#BF552B" opacity="0.5"/><path d="M433.3,365.2c0.6-2.6,1.1-5.1,1.6-7.5l-82-19c-0.6,2.4-1.2,4.9-1.9,7.5L433.3,365.2z" fill="#BF552B" opacity="0.5"/><rect fill="#BF552B" height="83.7" opacity="0.5" transform="matrix(0.2254 -0.9743 0.9743 0.2254 -95.5908 682.7487)" width="7.4" x="377.9" y="359.6"/><g opacity="0.5"><path d="M360.1,374.2L360.1,374.2c-0.2,1.2-0.8,2-1.6,2.4c-0.8,0.4-1.8,0.5-3,0.2c-1.2-0.3-2.1-0.9-2.7-1.8     c-0.6-0.9-0.7-2-0.4-3.2l0.5-2.1c0.3-1.2,0.9-2.1,1.8-2.7c0.9-0.6,1.9-0.8,3.1-0.5c1.3,0.3,2.2,0.8,2.7,1.6     c0.6,0.8,0.7,1.7,0.4,2.8l0,0l-2.3-0.5c0.1-0.6,0.1-1.1-0.1-1.4c-0.2-0.3-0.6-0.6-1.2-0.7c-0.5-0.1-1,0-1.3,0.4     c-0.4,0.4-0.6,0.9-0.8,1.6l-0.5,2.1c-0.2,0.7-0.1,1.3,0.1,1.8c0.2,0.5,0.6,0.8,1.2,0.9c0.5,0.1,0.9,0.1,1.2-0.1     c0.3-0.2,0.5-0.6,0.7-1.3L360.1,374.2z" fill="#BF552B"/><path d="M369.9,375.7c-0.3,1.2-0.9,2.2-1.9,2.8c-1,0.6-2.1,0.8-3.3,0.5c-1.3-0.3-2.2-0.9-2.8-1.9     c-0.6-1-0.8-2.1-0.5-3.3l0.4-1.8c0.3-1.2,0.9-2.2,1.9-2.8c1-0.6,2.1-0.8,3.4-0.5c1.3,0.3,2.2,0.9,2.8,1.9c0.6,1,0.8,2.1,0.5,3.3     L369.9,375.7z M368,373.3c0.2-0.7,0.1-1.3-0.1-1.9c-0.2-0.5-0.7-0.9-1.3-1c-0.6-0.1-1.2,0-1.6,0.4c-0.4,0.4-0.7,0.9-0.9,1.6     l-0.4,1.8c-0.2,0.7-0.1,1.4,0.1,1.9c0.2,0.5,0.7,0.9,1.3,1c0.6,0.1,1.1,0,1.6-0.4c0.4-0.4,0.7-0.9,0.9-1.7L368,373.3z" fill="#BF552B"/><path d="M373.1,378.8l4.3,1l-0.4,1.8l-6.6-1.5l2.3-10l2.3,0.5L373.1,378.8z" fill="#BF552B"/><path d="M378.3,381.9l2.3-10l3.7,0.8c1.2,0.3,2.1,0.9,2.7,1.8c0.6,1,0.8,2,0.5,3.2l-0.4,1.8     c-0.3,1.2-0.9,2.1-1.9,2.7c-1,0.6-2,0.7-3.2,0.5L378.3,381.9z M382.5,374.2l-1.5,6.4l1.3,0.3c0.5,0.1,1,0,1.5-0.3     c0.4-0.4,0.7-0.9,0.9-1.6l0.4-1.8c0.2-0.7,0.1-1.3-0.1-1.8s-0.6-0.8-1.2-0.9L382.5,374.2z" fill="#BF552B"/><path d="M390.7,380.7l-0.9,3.8l-2.3-0.5l2.3-10l3.5,0.8c1.2,0.3,2,0.7,2.6,1.4c0.6,0.7,0.7,1.5,0.5,2.4     c-0.1,0.5-0.4,0.9-0.7,1.2c-0.4,0.3-0.8,0.5-1.4,0.6c0.6,0.3,0.9,0.7,1.1,1.2c0.2,0.5,0.2,1,0.1,1.6l-0.1,0.6     c-0.1,0.3-0.1,0.6-0.1,0.9c0,0.4,0.1,0.6,0.2,0.8l0,0.1l-2.4-0.6c-0.2-0.2-0.2-0.5-0.2-0.8c0-0.4,0.1-0.7,0.2-1l0.1-0.6     c0.1-0.5,0.1-0.9-0.1-1.2c-0.2-0.3-0.5-0.5-1-0.6L390.7,380.7z M391.1,379l1.2,0.3c0.5,0.1,0.9,0.1,1.1-0.1     c0.3-0.2,0.5-0.4,0.6-0.8c0.1-0.4,0-0.8-0.2-1.1c-0.2-0.3-0.5-0.5-1-0.6l-1.2-0.3L391.1,379z" fill="#BF552B"/><path d="M398.9,386.7l-2.3-0.5l2.3-10l2.3,0.5L398.9,386.7z" fill="#BF552B"/><path d="M409,389l-2.3-0.5l-2.2-7.1l0,0l-1.5,6.3l-2.3-0.5l2.3-10l2.3,0.5l2.2,7.1l0,0l1.5-6.3l2.3,0.5L409,389z" fill="#BF552B"/><path d="M414.5,386.1l-0.6-0.1l-0.9,4l-2.3-0.5l2.3-10l2.3,0.5l-0.9,3.9l0.5,0.1l3.2-3.4l2.9,0.7l-4.2,3.8     l2.2,6.3l-3-0.7L414.5,386.1z" fill="#BF552B"/></g></g><g><path d="M454.8,196.7h-379c-16.2,0-28.3,14.8-25.1,30.7l43.5,214.8c3.8,18.8,20.4,32.4,39.6,32.4h263.2    c19.2,0,35.8-13.6,39.6-32.4l43.5-214.8C483.1,211.5,471,196.7,454.8,196.7z M133.7,449.4L133.7,449.4c-5,0-9.3-4.1-9.9-9.6    L100.6,247c-0.8-6.6,3.9-12.4,9.9-12.4h0c5,0,9.3,4.1,9.9,9.6L143.7,437C144.5,443.6,139.8,449.4,133.7,449.4z M187,449.4    L187,449.4c-5.2,0-9.5-4.4-10-10l-15.3-192.8c-0.5-6.4,4.1-12,10-12h0c5.2,0,9.5,4.4,10,10L197,437.5    C197.5,443.9,192.9,449.4,187,449.4z M239.4,449.4L239.4,449.4c-5.4,0-9.9-4.7-10-10.7l-5.4-192.8c-0.2-6.2,4.4-11.3,10-11.3h0    c5.4,0,9.9,4.7,10,10.7l5.4,192.8C249.6,444.3,245,449.4,239.4,449.4z M301.2,438.7c-0.2,5.9-4.6,10.7-10,10.7h0    c-5.7,0-10.2-5.1-10-11.3l5.4-192.8c0.2-5.9,4.6-10.7,10-10.7c5.7,0,10.2,5.1,10,11.3L301.2,438.7z M368.8,246.5l-15.3,192.8    c-0.5,5.7-4.8,10-10,10l0,0c-5.9,0-10.5-5.5-10-12l15.3-192.8c0.5-5.7,4.8-10,10-10l0,0C364.7,234.6,369.3,240.1,368.8,246.5z     M430,247l-23.2,192.8c-0.7,5.5-4.9,9.6-9.9,9.6l0,0c-6.1,0-10.7-5.8-9.9-12.4l23.2-192.8c0.7-5.5,4.9-9.6,9.9-9.6l0,0    C426.1,234.6,430.8,240.4,430,247z" fill="#FF7069"/><path d="M489.8,223.7h-449c-9,0-16.2-7.3-16.2-16.2V179c0-9,7.3-16.2,16.2-16.2h449c9,0,16.2,7.3,16.2,16.2v28.5    C506,216.5,498.7,223.7,489.8,223.7z" fill="#C63030"/><g><circle cx="315.2" cy="193.3" fill="#FF7069" r="23.3"/><circle cx="215.3" cy="193.3" fill="#FF7069" r="23.3"/></g><path d="M425.6,43.4c-7.9-6-19.1-4.4-25.1,3.5l-101.1,138c-6,7.9-4.4,19.1,3.5,25.1l0,0c7.9,6,19.1,4.4,25.1-3.5    l101.1-138C435,60.6,433.5,49.4,425.6,43.4z" fill="#DEDEDF"/><path d="M128,44.5c-6-7.9-17.2-9.4-25.1-3.5c-7.9,6-9.4,17.2-3.5,25.1l101.1,138c6,7.9,17.2,9.4,25.1,3.5h0    c7.9-6,9.4-17.2,3.5-25.1L128,44.5z" fill="#DEDEDF"/><circle cx="315.7" cy="194.6" fill="#FF7069" r="10.6"/><circle cx="215.4" cy="193.9" fill="#FF7069" r="10.6"/></g></g></svg>